<svg xmlns="http://www.w3.org/2000/svg" viewBox="0 0 594.5005 439.8583"><defs><style>.cls-1{fill:#fff;}</style></defs><title>Ресурс 1</title><g id="Слой_2" data-name="Слой 2"><g id="Слой_1-2" data-name="Слой 1"><path class="cls-1" d="M583.1688,216.9759c-19.6948,19.6948-64.16,50.5129-161.239,50.5129-94.7496,0-158.1285-24.3591-224.502-24.3591-55.7017,0-104.0642,13.4515-144.2881,42.7485-8.2223,5.8648-15.3202,15.2993-15.3202,25.515s5.2563,13.2,9.1044,12.9039l.4585,3.1438s-11.3804,9.4185-23.916,9.4185S0,328.9101,0,310.8297c0-18.1456,7.6475-35.5302,58.306-71.1644,20.8152-13.854,73.4622-44.008,150.6819-44.6905,50.0293,0,104.5934,14.2697,139.0173,18.2778,29.5561,3.5183,163.8348,23.8733,228.434-32.0487,10.8549-9.3516,18.0613-4.1297,18.0613,7.7665C594.5005,201.3098,587.1967,212.948,583.1688,216.9759ZM468.3461,195.0203c-10.9716,0-11.2365-10.5467-11.2365-12.1512s1.4372-11.1302,7.5525-21.5921c.8909-1.6957-.6404-1.9294-2.1986-.4721-1.3803,1.2027-32.0185,23.4271-39.378,23.4271-7.0635,0-17.0857-17.0772-17.9299-21.8608-.7287-1.0867-1.145-.7009-2.3292.3677-2.1144,1.7198-23.3285,19.7436-37.9385,19.7436s-25.6318-19.3443-31.4746-28.782c-13.2364,11.4916-10.7066,19.1946-18.248,19.1946s-8.6557-17.0341-9.2748-21.925c-.3591-1.9161-.8003-1.6033-2.1578-.0726s-25.7506,25.0593-40.4298,25.0593c-11.6093,0-12.9489-11.6651-12.9489-14.3999s1.9145-11.4569,3.898-15.6545c.8765-2.1219-.1383-2.168-1.4761-.7842-10.0798,9.1895-21.9624,24.2493-32.5157,24.2493-11.6677,0-15.5703-14.0126-15.5703-20.7729,0,0-1.4668-17.3649,16.2864-38.4126,12.9591-14.3064,16.1801-13.7072,25.5436-13.7072s8.9333,2.2465,8.9333,3.8223.1884,3.5461-7.7422,11.0673c-2.212,2.0251-6.0375,7.1631-11.0516,11.3075-11.3075,8.3398-16.0992,10.9415-17.056,20.7338-.6753,5.684,1.0468,8.026,15.4655-1.1031,13.9504-8.0919,53.055-47.9626,62.4484-49.281,3.4608-.3296,5.0264,6.5097,4.7792,11.7834s-2.6368,6.9217-6.9215,10.9593c-4.3411,3.7-21.689,19.7243-23.4706,32.3944-.324,3.5943,3.8,13.7931,35.2935-10.6885,15.3424-41.9318,80.8421-92.154,95.5802-92.154a5.53722,5.53722,0,0,1,5.7305,5.6809c0,13.6309-65.7704,67.8107-87.9513,89.8634-.1642,2.7773-.1556,2.8444-.2509,4.687,0,1.1437,1.5885.0953,2.6051-.8895,1.5164-1.3257,49.2628-40.2967,66.6973-40.2967,10.0442,0,11.8412,12.1016,11.8412,16.3412,0,3.514-.5616,11.0901-10.8212,18.1859-10.075,6.8652-31.0196,14.9018-31.7576,15.5475,1.3206,1.8658,5.9883,11.1996,15.2978,11.1996s28.6904-13.8762,31.3242-15.7673c5.3605-17.5407,43.438-36.6173,72.2708-36.6173,16.6376,0,18.0161,11.0768,18.0161,11.4962,0,2.9356-5.0548,3.8815-6.7109,3.8815-.9964,0-.1743,1.1043.41,1.5168a9.40018,9.40018,0,0,1,4.911,8.2373c0,7.1849-18.3285,19.6062-18.3285,29.4093,0,5.0598,5.4341,6.2768,8.2473,6.2768s8.4719-.1409,28.298-13.0009c1.3396,7.3677,1.2441,6.7245,1.4145,7.7187C511.3755,172.0049,481.903,195.0203,468.3461,195.0203Zm-92.1482-60.5411c5.9075-3.6181,6.7936-5.6856,7.1629-7.7531s-2.2154-2.7321-3.8399-2.7321-16.615,2.2891-34.2639,18.5337c0,0,6.8676,3.1751,8.4183,5.6117C356.5552,146.2196,370.2903,138.0973,376.1979,134.4792Zm95.9073-1.0014c-2.0812.5476-52.5938,7.4258-52.5938,29.092,0,.6377-.6134,6.7277,5.0569,6.7277,6.0246,0,19.2603-7.3295,50.405-34.8979C477.0209,132.4316,474.1864,132.9301,472.1052,133.4778ZM235.5268,49.7572c-21.3501,30.0407-25.115,38.306-31.3134,49.87-24.8005,44.8242-38.7301,61.9006-52.5887,78.4586-4.7583.7675-22.8685,4.706-24.9462,5.0927.8158-2.6285,5.7012-14.1704,10.4371-37.7797,2.7417-25.3315,10.6747-64.6547,11.4422-70.0351-6.5987,9.0362-32.4423,53.6981-37.6996,63.0337-47.58,77.4208-78.0394,78.1978-85.0349,78.1978s-8.9715-3.752-8.9715-12.7848c0-35.1757,50.2147-122.1112,71.5595-122.1112,7.1164,0,8.2793,5.907,8.2793,8.9303s-1.0233,8.0001-5.8141,15.6281S78.804,125.2603,75.9389,129.4785s-5.5214,8.3603-7.4474,8.3603-1.3814-3.5177-1.3814-3.5177c.1102-.8941-.873-1.0738-1.5109-.2163-3.717,5.2065-31.7827,56.573-20.1345,56.4884,12.1083,0,50.442-45.1194,76.7094-89.4449,11.7447-23.8027,30.8003-54.0346,42.9073-72.5373,5.2641-.9869,15.4634-2.9608,27.8561-4.2767-4.7158,9.5404-13.5991,53.2947-15.5731,67.5505s-6.0821,38.0525-7.8125,45.963c3.4608-2.6368,12.0977-16.9547,21.2364-34.6318,9.2212-17.9242,14.0596-25.6017,40.7393-67.7907C247.4875,10.0295,260.4773,0,270.7152,0c7.7156,0,10.5621,2.0973,10.5621,6.8911s-3.0518,8.592-9.4737,16.838C249.3514,22.3876,241.3826,40.8559,235.5268,49.7572ZM224.0915,273.3953c21.9804,0,22.8197,17.3837,22.8197,21.9462,0,28.9695-55.2691,79.9168-79.4189,79.9168a10.89984,10.89984,0,0,1-11.1242-11.0547c0-4.9293,3.3334-9.614,7.8279-13.434s16.255-12.9582,20.3001-16.4037,6.0675-5.0185,7.7904-5.0185a2.085,2.085,0,0,1,2.3971,2.322c0,1.4232-1.3484,4.644,1.9476,1.9475s32.3036-28.4996,32.3036-40.8225c0-2.8002-1.3285-5.015-4.5702-5.015s-24.4251,1.5962-57.4381,32.8955c-24.7995,21.931-44.6656,47.3636-44.6656,74.0351,0,22.5776,17.3991,25.9203,26.7156,25.9203,9.604,0,41.4783-6.9988,88.168-45.2061.0933,7.1444.7506,8.6882-5.9787,15.8742-7.0533,7.024-53.025,48.5599-94.8653,48.5599-17.3574,0-44.859-10.5223-44.859-43.5986C91.4415,336.0979,189.6558,273.3953,224.0915,273.3953Zm75.6733,68.5024c13.5115,0,12.5957,10.5913,7.8528,11.698-2.0432.4195-1.4479,1.5992-.4172,1.9428s6.3236.6895,6.3236,11.3806c0,10.1566-4.989,18.7095-8.0775,24.7084-.6788,1.2688,1.2772,1.1177,2.2143,1.1177s6.3384,1.1987,19.4049-12.0464c6.5646-27.6713,16.1515-41.1717,20.0588-46.2281,12.6963-16.4602,39.0382-48.9771,47.18-48.9771,2.9689,0,3.6193,3.8883,3.6193,5.8956,0,30.5012-25.1211,59.3585-52.5875,88.5063-3.7697,4.0098-3.7338,23.6648,8.6666,23.6648,8.4084,0,23.4418-11.2951,30.6612-18.5987,9.6841-28.8752,68.5617-59.2279,80.3735-59.2279,7.7679,0,9.7538,4.7311,9.7538,6.6834s-.1877,3.4728-6.3283,6.9269c-1.5352,1.8304,5.373-.4133,5.373,7.4986,0,7.8343-18.1315,25.2828-18.1315,35.446,0,3.5501,2.4363,4.6639,4.803,4.6639s8.1159.6391,31.5139-23.9496c1.5327,6.4747,1.1788,4.7546,1.611,6.9158-2.0787,3.463-35.7841,43.3576-49.7369,43.3576-4.2881,0-7.3098-3.6983-7.3098-9.6354s6.282-21.7464,7.4556-23.8866-1.1042-1.1166-1.8057-.2593-18.0547,17.542-21.0785,20.7369-15.4044,14.2059-19.9115,14.2059-13.5216-8.0443-16.6025-17.9142c-.3529-1.0242-.746-1.2855-1.8372.0004s-21.8299,25.3034-39.8396,25.3034-16.9071-23.6137-16.9071-26.9215c0-1.9788-1.4632-.5734-1.7633-.1447s-9.1583,11.9429-28.602,11.9429c-8.174,7.4413-17.6657,15.5793-31.9634,15.5793-16.4544,0-22.5807-20.1774-22.5807-31.6002C241.1499,357.3833,285.4012,341.8977,299.7648,341.8977Zm51.9851,17.0153a144.58475,144.58475,0,0,0,27.0819-39.1357c1.2663-2.9215,3.2452-7.4303,2.3428-7.5534,0,0-6.0663,1.4946-19.0781,22.6825-3.1233,4.6849-6.0663,10.7259-11.8689,23.298C349.3572,360.4281,351.0719,359.6217,351.7499,358.913Zm54.9652,38.7928c6.1571-4.1197,6.1399-2.4387,25.4814-22.8047,18.958-20.3113,22.055-25.5,22.055-25.5s.7903-1.7372-1.4177-.5956c-2.4141,1.2226-10.9411,5.3657-18.7477,10.0265-7.6256,4.525-35.4581,19.1824-35.4581,35.2317C398.628,397.0295,400.558,401.8255,406.7151,397.7058Zm-140.7208,9.5455c6.9883,0,15.8904-7.0598,15.8904-9.0448-7.1616-11.6191,5.1561-29.9832,5.9121-31.4349.9622-1.3279.4054-1.8706-.0815-1.6764a140.54671,140.54671,0,0,0-21.1801,13.3877c-5.5376,4.1969-10.1357,14.1383-10.1357,19.8383C256.3995,408.1063,265.9943,407.2513,265.9943,407.2513Z"/></g></g></svg>